<?xml version="1.0" encoding="UTF-8"?>
<svg xmlns="http://www.w3.org/2000/svg" viewBox="0 0 100 100">
  <rect x="4" y="4" width="92" height="92" rx="20" fill="#10b981"/>
  <path d="M 8.00 46.00 L 8.28 45.84 L 8.55 45.48 L 8.83 44.99 L 9.11 44.41 L 9.39 43.76 L 9.66 43.10 L 9.94 42.45 L 10.22 41.84 L 10.50 41.33 L 10.77 40.92 L 11.05 40.66 L 11.33 40.56 L 11.61 40.64 L 11.88 40.91 L 12.16 41.38 L 12.44 42.03 L 12.71 42.86 L 12.99 43.85 L 13.27 44.98 L 13.55 46.21 L 13.82 47.52 L 14.10 48.87 L 14.38 50.22 L 14.66 51.52 L 14.93 52.74 L 15.21 53.83 L 15.49 54.75 L 15.76 55.48 L 16.04 55.99 L 16.32 56.24 L 16.60 56.23 L 16.87 55.94 L 17.15 55.38 L 17.43 54.56 L 17.71 53.48 L 17.98 52.17 L 18.26 50.67 L 18.54 49.01 L 18.82 47.23 L 19.09 45.38 L 19.37 43.50 L 19.65 41.65 L 19.92 39.88 L 20.20 38.24 L 20.48 36.78 L 20.76 35.53 L 21.03 34.53 L 21.31 33.81 L 21.59 33.40 L 21.87 33.31 L 22.14 33.55 L 22.42 34.11 L 22.70 34.97 L 22.97 36.13 L 23.25 37.54 L 23.53 39.18 L 23.81 40.99 L 24.08 42.94 L 24.36 44.97 L 24.64 47.03 L 24.92 49.06 L 25.19 51.01 L 25.47 52.82 L 25.75 54.46 L 26.03 55.87 L 26.30 57.03 L 26.58 57.89 L 26.86 58.45 L 27.13 58.69 L 27.41 58.60 L 27.69 58.19 L 27.97 57.47 L 28.24 56.47 L 28.52 55.22 L 28.80 53.76 L 29.08 52.12 L 29.35 50.35 L 29.63 48.50 L 29.91 46.62 L 30.18 44.77 L 30.46 42.99 L 30.74 41.33 L 31.02 39.83 L 31.29 38.52 L 31.57 37.44 L 31.85 36.62 L 32.13 36.06 L 32.40 35.77 L 32.68 35.76 L 32.96 36.01 L 33.24 36.52 L 33.51 37.25 L 33.79 38.17 L 34.07 39.26 L 34.34 40.48 L 34.62 41.78 L 34.90 43.13 L 35.18 44.48 L 35.45 45.79 L 35.73 47.02 L 36.01 48.15 L 36.29 49.14 L 36.56 49.97 L 36.84 50.62 L 37.12 51.09 L 37.39 51.36 L 37.67 51.44 L 37.95 51.34 L 38.23 51.08 L 38.50 50.67 L 38.78 50.16 L 39.06 49.55 L 39.34 48.90 L 39.61 48.24 L 39.89 47.59 L 40.17 47.01 L 40.45 46.52 L 40.72 46.16 L 41.00 46.00" fill="none" stroke="#ffffff" stroke-width="5.00"
        stroke-linecap="round" stroke-linejoin="round"/>
  <path d="M 47 46 L 56 46"
        stroke="#ffffff" stroke-width="3" stroke-linecap="round" opacity="0.9"/>
  <path d="M 54 42 L 59 46 L 54 50"
        fill="none" stroke="#ffffff" stroke-width="3" stroke-linecap="round"
        stroke-linejoin="round" opacity="0.9"/>
  <rect x="61.30" y="51.00" width="5.40" height="15.00" rx="1.4" fill="#ffffff"/>
  <rect x="68.30" y="39.00" width="5.40" height="27.00" rx="1.4" fill="#ffffff"/>
  <rect x="75.30" y="46.00" width="5.40" height="20.00" rx="1.4" fill="#ffffff"/>
  <rect x="82.30" y="54.00" width="5.40" height="12.00" rx="1.4" fill="#ffffff"/>
  <rect x="89.30" y="59.00" width="5.40" height="7.00" rx="1.4" fill="#ffffff"/>
</svg>
